PathFileType	4	(X/Y/Z)	/Users/itak/Documents/Research/Walk-IL/dataset/trc/00197_00008.trc
DataRate	CameraRate	NumFrames	NumMarkers	Units	OrigDataRate	OrigDataStartFrame	OrigNumFrames
100.000000	100.000000	4	53	mm	100.000000	0	755
Frame#	Time	RPSI			LPSI			L3			STRN			T10			C7			CLAV			RBAK			LBAK			LSHO			LUPA			LAEL			LAOL			LWTS			LWPS			LFRA			LIFD			LHPS			LHTS			RSHO			RUPA			RAEL			RAOL			RWTS			RWPS			RFRA			RIFD			RHTS			RHPS			RBHD			LFHD			RFHD			LBHD			LHIP			RHIP			RASI			LASI			LKNE			LTHI			LANK			LTIP			LTOE			LMT1			LMT5			LHEE			RKNE			RTHI			RANK			RTIP			RTOE			RMT1			RMT5			RHEE			
		X1	Y1	Z1	X2	Y2	Z2	X3	Y3	Z3	X4	Y4	Z4	X5	Y5	Z5	X6	Y6	Z6	X7	Y7	Z7	X8	Y8	Z8	X9	Y9	Z9	X10	Y10	Z10	X11	Y11	Z11	X12	Y12	Z12	X13	Y13	Z13	X14	Y14	Z14	X15	Y15	Z15	X16	Y16	Z16	X17	Y17	Z17	X18	Y18	Z18	X19	Y19	Z19	X20	Y20	Z20	X21	Y21	Z21	X22	Y22	Z22	X23	Y23	Z23	X24	Y24	Z24	X25	Y25	Z25	X26	Y26	Z26	X27	Y27	Z27	X28	Y28	Z28	X29	Y29	Z29	X30	Y30	Z30	X31	Y31	Z31	X32	Y32	Z32	X33	Y33	Z33	X34	Y34	Z34	X35	Y35	Z35	X36	Y36	Z36	X37	Y37	Z37	X38	Y38	Z38	X39	Y39	Z39	X40	Y40	Z40	X41	Y41	Z41	X42	Y42	Z42	X43	Y43	Z43	X44	Y44	Z44	X45	Y45	Z45	X46	Y46	Z46	X47	Y47	Z47	X48	Y48	Z48	X49	Y49	Z49	X50	Y50	Z50	X51	Y51	Z51	X52	Y52	Z52	X53	Y53	Z53	

1	0	472.8849487304688	1056.942626953125	966.6654052734375	465.4963073730469	1062.267944335938	1089.626342773438	468.2960815429688	1097.000732421875	1023.942260742188	212.2965393066406	1299.42236328125	1010.1748046875	503.24169921875	1260.476440429688	1024.537719726562	428.1635131835938	1527.316650390625	1023.836242675781	233.1068725585938	1417.050903320312	1016.900329589844	506.2149963378906	1351.512451171875	924.8894653320312	434.1067199707031	1506.0927734375	1124.790893554688	356.7120971679688	1492.900146484375	1201.434326171875	391.0059204101562	1362.031372070312	1277.17138671875	378.1527099609375	1145.224609375	1298.750854492188	427.5651245117188	1128.10205078125	1228.09814453125	266.0412292480469	915.6801147460938	1273.2998046875	348.0814819335938	893.0469360351562	1313.733154296875	363.6964416503906	1035.390625	1315.104736328125	259.1212158203125	729.902587890625	1247.233276367188	327.3705139160156	823.6256713867188	1310.675659179688	256.6095581054688	833.5194091796875	1292.87255859375	373.594482421875	1498.163940429688	841.4497680664062	398.5210266113281	1430.358642578125	775.189208984375	422.5492248535156	1141.666748046875	725.7613525390625	427.3504333496094	1135.635009765625	823.788330078125	287.3613891601562	912.6370239257812	746.1988525390625	364.4376220703125	895.4561157226562	702.8729858398438	398.5932006835938	1068.424072265625	708.8427734375	280.4715881347656	722.2941284179688	777.2470703125	264.9902954101562	815.2754516601562	740.1959838867188	338.6094055175781	811.653564453125	707.8170776367188	301.9237670898438	1699.9248046875	945.7779541015625	140.3438262939453	1666.780639648438	1086.966186523438	131.1737518310547	1664.1025390625	957.6480102539062	312.3379516601562	1712.403564453125	1081.541015625	357.3045959472656	1003.974853515625	1205.97998046875	322.4591369628906	1013.60498046875	834.6297607421875	238.5411376953125	1043.389526367188	885.2540893554688	231.7646484375	1044.9521484375	1146.658447265625	303.2188720703125	503.4523315429688	1185.1064453125	311.914306640625	649.8233032226562	1208.095336914062	443.5728454589844	45.24552154541016	1197.2724609375	368.4146423339844	279.8433532714844	1203.875	222.2786712646484	45.02732086181641	1179.696899414062	270.7863159179688	48.18699645996094	1131.229248046875	336.7804260253906	35.80938339233398	1242.371704101562	490.5783996582031	45.89632415771484	1124.91796875	327.6546630859375	513.5933837890625	880.1571655273438	277.9889221191406	780.8905639648438	836.0555419921875	440.3814392089844	40.22025680541992	908.177978515625	323.3908996582031	395.1138916015625	903.574462890625	214.8105621337891	42.59806823730469	923.3590698242188	267.6787414550781	41.84300994873047	973.284423828125	330.8147888183594	40.71714401245117	864.5321655273438	487.7108154296875	38.40239334106445	978.0275268554688	
2	0.01	472.7185363769531	1056.88134765625	967.2183837890625	465.3981018066406	1062.207641601562	1090.154541015625	468.239501953125	1096.964477539062	1024.4912109375	212.3270263671875	1299.528930664062	1010.820983886719	503.1880798339844	1260.39697265625	1025.195678710938	428.3364562988281	1527.273315429688	1024.531982421875	233.2251281738281	1416.9716796875	1017.445495605469	506.287841796875	1351.447387695312	925.5661010742188	434.1924743652344	1506.034423828125	1125.491577148438	356.7903442382812	1492.892211914062	1202.114868164062	390.9588012695312	1362.006713867188	1277.865844726562	377.7987060546875	1145.212280273438	1299.572143554688	427.2906799316406	1127.990234375	1228.95947265625	265.2878112792969	915.8116455078125	1274.046752929688	347.3045349121094	893.0955200195312	1314.590942382812	363.2080078125	1035.40771484375	1315.940673828125	258.1011352539062	730.042724609375	1248.10107421875	326.5090637207031	823.7108764648438	1311.536865234375	255.7642974853516	833.72216796875	1293.711669921875	373.6937255859375	1498.21728515625	842.130615234375	398.6364440917969	1430.367797851562	775.8779296875	422.5535278320312	1141.625610351562	726.6029663085938	427.2938842773438	1135.667846679688	824.6233520507812	287.0814208984375	912.6797485351562	747.1785888671875	364.1746826171875	895.4327392578125	703.8949584960938	398.490966796875	1068.383422851562	709.7214965820312	279.9880981445312	722.4786376953125	778.377685546875	264.6209716796875	815.39599609375	741.2832641601562	338.2479858398438	811.6653442382812	708.918701171875	302.0339965820312	1700.006225585938	946.5776977539062	140.6962585449219	1666.8916015625	1087.990600585938	131.2975158691406	1664.301635742188	958.6860961914062	312.6948547363281	1712.371826171875	1082.324462890625	357.0784912109375	1003.992858886719	1206.517333984375	322.2858276367188	1013.664123535156	835.1713256835938	238.3837585449219	1043.484252929688	885.8240356445312	231.6659851074219	1044.906982421875	1147.215698242188	304.4677124023438	503.4837951660156	1185.332763671875	312.4876098632812	649.8651123046875	1208.495361328125	443.6121826171875	45.12689208984375	1197.31396484375	369.0548400878906	279.86474609375	1204.000244140625	222.2988128662109	45.03054428100586	1179.686645507812	270.806396484375	48.17450332641602	1131.217651367188	336.789306640625	35.80568313598633	1242.378784179688	490.6176147460938	45.72708129882812	1124.937377929688	327.4686279296875	513.6257934570312	880.5023803710938	277.2906799316406	781.0596923828125	836.2373657226562	440.3701477050781	40.26292419433594	908.1897583007812	323.2457275390625	395.0788269042969	903.7720947265625	214.8002624511719	42.59911346435547	923.365234375	267.6106262207031	41.86011123657227	973.33935546875	330.818359375	40.73451614379883	864.5574340820312	487.7047424316406	38.39521026611328	978.0490112304688	
3	0.02	472.5274353027344	1056.807373046875	967.9053955078125	465.2713928222656	1062.140380859375	1090.823364257812	468.1685485839844	1096.922607421875	1025.181518554688	212.3452606201172	1299.655151367188	1011.627502441406	503.1363220214844	1260.296630859375	1026.01220703125	428.5435485839844	1527.2216796875	1025.40869140625	233.3675384521484	1416.901489257812	1018.168701171875	506.35498046875	1351.370483398438	926.4085083007812	434.3140563964844	1505.959228515625	1126.373657226562	356.8981323242188	1492.8798828125	1202.972778320312	390.9157409667969	1361.976318359375	1278.740356445312	377.3786010742188	1145.199096679688	1300.599487304688	426.947021484375	1127.853637695312	1230.03857421875	264.3346862792969	916.0160522460938	1274.9775390625	346.3177795410156	893.1613159179688	1315.659545898438	362.591552734375	1035.429443359375	1316.987548828125	256.7698364257812	730.2650146484375	1249.172119140625	325.3928833007812	823.82421875	1312.611083984375	254.6780090332031	833.9942626953125	1294.7548828125	373.8247985839844	1498.286865234375	842.9945678710938	398.7713317871094	1430.388671875	776.7472534179688	422.5341491699219	1141.577026367188	727.658935546875	427.2122192382812	1135.715209960938	825.6705932617188	286.7075500488281	912.7653198242188	748.428466796875	363.810791015625	895.4078369140625	705.1996459960938	398.3569641113281	1068.333862304688	710.8345947265625	279.3433837890625	722.7033081054688	779.8447875976562	264.1344604492188	815.5697021484375	742.6891479492188	337.7724609375	811.6865844726562	710.331298828125	302.1884765625	1700.10205078125	947.5884399414062	141.1225891113281	1667.022827148438	1089.279174804688	131.4540100097656	1664.531494140625	959.9874267578125	313.1365356445312	1712.34033203125	1083.31396484375	356.8532104492188	1004.020935058594	1207.173095703125	322.0756530761719	1013.740112304688	835.8486938476562	238.2017517089844	1043.6005859375	886.5398559570312	231.6177062988281	1044.785766601562	1147.896606445312	306.0209350585938	503.524169921875	1185.588623046875	313.2318725585938	649.9140014648438	1208.983154296875	443.6601257324219	44.98809051513672	1197.35791015625	369.8628234863281	279.9069519042969	1204.147216796875	222.3241729736328	45.03395843505859	1179.674682617188	270.82861328125	48.1621208190918	1131.202392578125	336.7980651855469	35.80160140991211	1242.384643554688	490.6585693359375	45.52727508544922	1124.954956054688	327.250244140625	513.66455078125	880.926025390625	276.544189453125	781.2283935546875	836.5585327148438	440.3576049804688	40.31070709228516	908.2062377929688	323.0883483886719	395.0480346679688	904.0274047851562	214.7894439697266	42.60135650634766	923.3717651367188	267.538330078125	41.87642669677734	973.3955078125	330.8207092285156	40.7539176940918	864.5870361328125	487.6965637207031	38.38804244995117	978.0736083984375	
4	0.03	472.3258666992188	1056.726318359375	968.6964721679688	465.122802734375	1062.073120117188	1091.606201171875	468.0824890136719	1096.877563476562	1025.984985351562	212.3512725830078	1299.795288085938	1012.565368652344	503.0943908691406	1260.1796875	1026.94873046875	428.7738647460938	1527.164428710938	1026.431762695312	233.5284271240234	1416.8505859375	1019.051574707031	506.4069519042969	1351.286743164062	927.378662109375	434.4746704101562	1505.869262695312	1127.401245117188	357.0371704101562	1492.861938476562	1203.975219726562	390.8862609863281	1361.940307617188	1279.760375976562	376.9197082519531	1145.184814453125	1301.789184570312	426.5515747070312	1127.69873046875	1231.289306640625	263.217529296875	916.301513671875	1276.054565429688	345.1562194824219	893.2427368164062	1316.890380859375	361.8719177246094	1035.45458984375	1318.20068359375	255.1542053222656	730.579833984375	1250.393188476562	324.0533142089844	823.963134765625	1313.84912109375	253.3840637207031	834.3321533203125	1295.953979492188	373.982177734375	1498.3701171875	844.0093383789062	398.9138793945312	1430.424926757812	777.7630615234375	422.4822387695312	1141.524536132812	728.8845825195312	427.1088562011719	1135.777587890625	826.8851318359375	286.2464599609375	912.9031372070312	749.9086303710938	363.345458984375	895.384521484375	706.7427368164062	398.190673828125	1068.2783203125	712.138916015625	278.5507202148438	722.9579467773438	781.6110229492188	263.5366516113281	815.7966918945312	744.3743896484375	337.1881713867188	811.7194213867188	712.0099487304688	302.3843383789062	1700.204711914062	948.7705078125	141.5985870361328	1667.166137695312	1090.777709960938	131.6367645263672	1664.776489257812	961.4981689453125	313.6416320800781	1712.313354492188	1084.471557617188	356.6549682617188	1004.059387207031	1207.916259765625	321.8460388183594	1013.830017089844	836.6327514648438	238.0059814453125	1043.730712890625	887.3701782226562	231.6590423583984	1044.559448242188	1148.662963867188	307.8149108886719	503.5754699707031	1185.858032226562	314.131591796875	649.9669799804688	1209.531982421875	443.7136840820312	44.83921432495117	1197.3994140625	370.8084411621094	279.9756469726562	1204.304931640625	222.3542785644531	45.0373420715332	1179.662109375	270.8517456054688	48.15132141113281	1131.184204101562	336.8060607910156	35.7973747253418	1242.388305664062	490.6963195800781	45.31062698364258	1124.96875	327.0211791992188	513.7084350585938	881.4041748046875	275.8309020996094	781.3836059570312	837.0243530273438	440.345458984375	40.35843276977539	908.2255859375	322.9395141601562	395.0285034179688	904.3278198242188	214.7807312011719	42.60528564453125	923.3773193359375	267.4724731445312	41.8886833190918	973.4440307617188	330.8211669921875	40.77366638183594	864.6176147460938	487.6867370605469	38.38118743896484	978.0985107421875	
